<?xml version="1.0" encoding="utf-8"?>
<!-- Generator: Adobe Illustrator 19.0.0, SVG Export Plug-In . SVG Version: 6.00 Build 0)  -->
<svg version="1.1" id="layer" xmlns="http://www.w3.org/2000/svg" xmlns:xlink="http://www.w3.org/1999/xlink" x="0px" y="0px"
	 viewBox="-153 -46 652 652" style="enable-background:new -153 -46 652 652;" xml:space="preserve">
<style type="text/css">
	.st0{fill:#FFFFFF;}
	.st1{fill:#630460;}
	.st2{clip-path:url(#SVGID_2_);fill:#FFFFFF;}
	.st3{clip-path:url(#SVGID_2_);fill:#70B3C1;}
	.st4{clip-path:url(#SVGID_2_);fill:#6EA592;}
	.st5{clip-path:url(#SVGID_2_);fill:#254467;}
</style>
<rect x="-131.8" y="184" class="st0" width="600" height="184.6"/>
<rect x="52.8" y="193.2" class="st1" width="406.2" height="166.2"/>
<g>
	<defs>
		<rect id="SVGID_1_" x="-131.8" y="184" width="600" height="184.6"/>
	</defs>
	<clipPath id="SVGID_2_">
		<use xlink:href="#SVGID_1_"  style="overflow:visible;"/>
	</clipPath>
	<path class="st2" d="M126.8,309c0,5.9-1.7,10.6-5,14.2c-3.3,3.6-8,5.4-14,5.4c-5.7,0-10.1-1.7-13.2-5c-3.1-3.3-4.7-7.8-4.7-13.4
		c0-5.9,1.7-10.5,5-14c3.4-3.4,8-5.1,14-5.1c5.7,0,10.1,1.6,13.2,4.8C125.2,299,126.8,303.4,126.8,309 M95.5,309.3
		c0,5.5,1.1,9.8,3.4,12.7c2.2,3,5.5,4.4,9.9,4.4c4.3,0,7.4-1.3,9.5-4c2-2.7,3.1-6.9,3.1-12.6c0-5.4-1.1-9.5-3.2-12.4
		c-2.2-2.9-5.5-4.3-10-4.3c-4.4,0-7.5,1.3-9.5,4C96.4,299.8,95.5,303.8,95.5,309.3"/>
	<path class="st2" d="M137.1,292h6.2c3.8,0,7.8,0,12.1-0.1l0.2,0.2L154,300l-1,0.2l-1.6-5.9h-11.8v14h2.3c1.8,0,3.1,0,5.3-0.1
		c0.4,0,0.7-0.2,0.9-0.7l0.9-3.4l1.4-0.1c0,2.4-0.1,4.1-0.1,5.3c0,1.1,0,2.8,0.1,5.2l-1.4,0.1l-0.9-3.5c-0.1-0.4-0.4-0.7-0.8-0.7
		c-2.2,0-3.6-0.1-5.3-0.1h-2.3v9.3c0,1.9,0,3.7,0,5.6H152l3.1-6.5l1.1-0.2l-0.6,8.9l-0.2,0.2c-4.4,0-8.5-0.1-12.2-0.1h-6.1
		c-2.1,0-4.2,0-6.3,0.1l-0.1-1.1l3.1-0.9c0.4-0.1,0.7-0.4,0.7-0.8c0-0.7,0-1.4,0-2.3c0-0.8,0-1.8,0-2.8v-20.7c0-0.9,0-1.6,0-2.3
		c0-0.7,0-1.3,0-1.9c0-0.4-0.2-0.7-0.6-0.9l-3.2-1l-0.1-1.1C133,291.9,135.1,292,137.1,292"/>
	<polygon class="st2" points="149.3,285.8 139.5,288 139,287 146.7,282.6 149.3,285.5 	"/>
	<path class="st2" d="M237.4,305.1c3-0.6,5.7-0.8,8.3-1.5l0.2,0.2c-0.1,2.2-0.2,4.3-0.2,7v9.8c0,2,0,3.4,0.1,4.2
		c0,0.5,0.2,0.8,0.6,0.9l3,0.9l0.1,1c-2.3-0.1-4.4-0.1-6-0.1c-1.7,0-3.7,0-6,0.1l-0.1-1l3-0.9c0.4-0.1,0.6-0.4,0.6-0.8
		c0-0.7,0.1-1.8,0.1-3.3v-8.5c0-2.2,0-4.3-0.1-6.2l-3.4-0.9L237.4,305.1z M246.1,295.6c0,0.9-0.3,1.6-0.8,2.2
		c-0.6,0.6-1.3,0.9-2.2,0.9c-0.9,0-1.5-0.3-2.1-0.8c-0.5-0.5-0.8-1.2-0.8-2.1c0-0.9,0.3-1.6,0.8-2.2c0.6-0.5,1.3-0.8,2.2-0.8
		c0.8,0,1.5,0.2,2,0.7C245.8,294,246.1,294.7,246.1,295.6"/>
	<path class="st2" d="M253.2,293.1l-0.1-0.9c3-0.6,5.8-0.8,8.3-1.5l0.2,0.2c-0.1,2.8-0.2,5-0.2,9.9v16.6c0,3,0,5.5,0,7.3
		c0.1,0.5,0.3,0.8,0.7,0.9l2.8,0.8l0.1,1c-2.3,0-4.3-0.1-6-0.1s-3.7,0-5.9,0.1l-0.1-1l2.9-0.8c0.4-0.1,0.7-0.4,0.7-0.8
		c0-1.9,0.1-4.1,0.1-6.4V308c0-6.3,0-10.1-0.1-13.9L253.2,293.1z"/>
	<path class="st2" d="M268.9,293.1l-0.1-0.9c3-0.6,5.8-0.8,8.3-1.5l0.2,0.2c-0.1,2.8-0.2,5-0.2,9.9v16.6c0,3,0,5.5,0,7.3
		c0.1,0.5,0.3,0.8,0.7,0.9l2.8,0.8l0.1,1c-2.3,0-4.3-0.1-6-0.1s-3.6,0-5.9,0.1l-0.1-1l2.9-0.8c0.4-0.1,0.7-0.4,0.7-0.8
		c0-1.9,0.1-4.1,0.1-6.4V308c0-6.3,0-10.1-0.1-13.9L268.9,293.1z"/>
	<path class="st2" d="M284.5,305.1c3-0.6,5.7-0.8,8.3-1.5l0.2,0.2c-0.1,2.2-0.2,4.3-0.2,7v9.8c0,2,0,3.4,0.1,4.2
		c0,0.5,0.2,0.8,0.6,0.9l3,0.9l0.1,1c-2.3-0.1-4.4-0.1-6-0.1c-1.7,0-3.7,0-6,0.1l-0.1-1l3-0.9c0.4-0.1,0.6-0.4,0.6-0.8
		c0-0.7,0.1-1.8,0.1-3.3v-8.5c0-2.2,0-4.3-0.1-6.2l-3.4-0.9L284.5,305.1z M293.2,295.6c0,0.9-0.3,1.6-0.8,2.2
		c-0.6,0.6-1.3,0.9-2.2,0.9c-0.9,0-1.5-0.3-2.1-0.8c-0.5-0.5-0.8-1.2-0.8-2.1c0-0.9,0.3-1.6,0.8-2.2c0.6-0.5,1.3-0.8,2.2-0.8
		c0.8,0,1.5,0.2,2,0.7C292.9,294,293.2,294.7,293.2,295.6"/>
	<path class="st2" d="M323.7,308.3c0.2,0.8,0.4,1.7,0.4,2.8v9.1c0,2,0,3.6,0.1,4.8c0,0.5,0.3,0.8,0.7,0.9l2.6,0.7l0,1
		c-2.1-0.1-3.9-0.1-5.6-0.1c-1.7,0-3.5,0-5.6,0.1l-0.1-1l2.4-0.7c0.5-0.2,0.8-0.4,0.8-0.8c0-0.2,0-0.8,0-1.6v-11.1
		c0-2.1-0.5-3.6-1.4-4.5c-1-0.9-2.4-1.4-4.2-1.4c-1.6,0-3.3,0.5-5,1.5v11.1c0,2.1,0,4.1,0.1,5.8c0,0.5,0.2,0.8,0.5,0.9l2.7,0.8l0,1
		c-2.1-0.1-4-0.1-5.7-0.1c-1.7,0-3.7,0-5.9,0.1l-0.1-1l2.9-0.9c0.4-0.1,0.6-0.4,0.7-0.8c0-0.9,0-1.9,0-3.1v-8.7c0-2.2,0-4.3-0.1-6.2
		l-3.4-0.9l-0.1-0.9c2.8-0.5,5.5-0.8,8.1-1.5l0.3,0.2v2.6c2.8-2.1,5.4-3.1,7.9-3.1c3.1,0,5.3,1.2,6.6,3.5c2.7-2.4,5.6-3.5,8.8-3.5
		c2.4,0,4.2,0.7,5.6,2c1.3,1.3,2,3.2,2,5.7v9c0,2.1,0,3.7,0.1,4.7c0,0.5,0.3,0.8,0.7,0.9l2.8,0.9l0,1c-2.2-0.1-4.2-0.1-5.9-0.1
		c-1.7,0-3.6,0-5.6,0.1l-0.1-1l2.5-0.7c0.4-0.1,0.6-0.4,0.7-0.8c0-0.2,0-0.8,0-1.6v-11.1c0-2.1-0.5-3.6-1.5-4.5
		c-1-0.9-2.4-1.4-4.3-1.4C327.1,306.5,325.4,307.1,323.7,308.3"/>
	<path class="st2" d="M346.6,292.2c2.8-0.5,5.6-0.8,8.3-1.5l0.2,0.2c-0.1,1.6-0.1,3.6-0.1,6.5c0,3,0,5,0,8.7c3-1.9,5.7-2.9,8.3-2.9
		c2.4,0,4.2,0.7,5.6,2c1.4,1.3,2.1,3.3,2.1,5.8v9c0,2,0,3.5,0.1,4.7c0,0.4,0.2,0.7,0.6,0.9l2.9,0.9l0.1,1c-2.2-0.1-4.2-0.1-5.9-0.1
		c-1.7,0-3.5,0-5.6,0.1l-0.1-1l2.5-0.7c0.4-0.1,0.6-0.4,0.7-0.8c0-0.2,0-0.8,0-1.6v-11.1c0-2.1-0.5-3.6-1.5-4.5
		c-1-0.9-2.5-1.4-4.4-1.4c-1.7,0-3.4,0.4-5.3,1.2v11.5c0,2.1,0,4,0.1,5.8c0,0.5,0.2,0.8,0.6,0.9l2.7,0.8l0,1
		c-2.1-0.1-4.1-0.1-5.7-0.1c-1.7,0-3.7,0-5.9,0.1l-0.1-1l2.9-0.8c0.4-0.1,0.7-0.4,0.7-0.8c0-1.6,0-3.7,0-6.3V308c0-3.5,0-6.5,0-9.2
		c0-2.7,0-3.4-0.1-4.7l-3.4-1L346.6,292.2z"/>
	<path class="st2" d="M214.8,308.5h-1l-0.1-3c3.3-1.5,6.3-2.2,8.8-2.2c2.6,0,4.7,0.7,6.2,2c1.5,1.4,2.3,3.3,2.3,5.9l-0.1,10.6
		c0,0.9,0,3.5,0,3.5l3.4,1.1l0.1,1.1l-7.6,0.4l-0.5-2.3c-2.4,1.7-4.7,2.6-6.8,2.6c-2.4,0-4.3-0.6-5.8-1.7c-1.5-1.2-2.2-2.8-2.2-4.9
		c0-2.6,1.2-4.5,3.5-5.8c2.3-1.2,6-1.9,11-1.9l0-2c0-1.9-0.5-3.3-1.5-4.2c-1-0.9-2.5-1.4-4.5-1.4c-1.4,0-2.9,0.2-5,0.7L214.8,308.5z
		 M226.1,316c-3.6,0-6,0.4-7.3,1.1c-1.3,0.7-2,2-2,3.7c0,1.6,0.4,2.8,1.3,3.4c0.9,0.7,2,1,3.5,1c1.7,0,3.2-0.3,4.4-0.9L226.1,316z"
		/>
	<path class="st2" d="M209,311.9c-1.9,0-3.9,0.1-5.9,0.1c-2,0-5.1,0-7.3-0.1l0.1,0.8l4,1.3c0.4,0.1,0.6,0.4,0.6,0.8l0.7,11
		c-1.4,0.3-3.2,0.7-4.9,0.6c-4.4-0.1-7.9-1.5-10.5-4.5c-2.6-3-3.9-7.1-3.9-12.2c0-5.1,1.2-9,3.6-11.9c2.4-2.9,5.7-4.3,10-4.3
		c1.8,0,4.4,0.3,6.2,0.9c0.6,1.8,0.8,3.8,0.8,5.5c0.2,0,0.5,0,0.7,0c0.4,0,0.7,0.1,1,0.1l1.6-7.6l-0.2-0.2c-3-0.7-5.9-1-8.6-1
		c-6.3,0-11.4,1.7-15,5.1c-3.7,3.4-5.5,8.1-5.5,14.1c0,5.7,1.8,10.1,5.3,13.2c3.5,3.2,8.3,4.8,14.3,4.8c2,0,3.5-0.2,5.4-0.5l0.1,1.2
		l0.7,0.6l3.5-0.8l0.1-0.2l0-12.9c0-0.5,0-0.9,0-1.3c0-0.4,0.3-0.7,0.7-0.8l2.8-0.8L209,311.9z"/>
	<path class="st2" d="M97.1,260c0,0.5,0.2,0.8,0.6,0.9l3.3,0.9l0.1,1.3c-2.3,0-4.2-0.1-5.7-0.1c-1.5,0-3.4,0-5.7,0.1l-0.1-1.3
		l3.4-0.9c0.4-0.1,0.7-0.4,0.7-0.8c0-1.4,0-3.1,0-5.1v-20.3c0-1.7,0-3.1,0-4.2c0-0.4-0.2-0.7-0.6-0.8l-3.4-1l-0.1-1.3
		c2.4,0.1,4.2,0.1,5.5,0.1c1.7,0,3.3,0,4.7-0.1l17,21.3c0.7,0.9,1.4,1.8,2.1,2.7c0-1.2,0-2.3,0-3.4v-13.3c0-1.6,0-3.1,0-4.3
		c0-0.4-0.2-0.6-0.7-0.8l-3.3-0.9l-0.1-1.4c2.3,0.1,4.3,0.1,5.7,0.1c1.5,0,3.4,0,5.7-0.1l0.1,1.3l-3.5,1c-0.4,0.1-0.6,0.4-0.6,0.8
		c-0.1,1.1-0.1,2.5-0.1,4.2v28.3l-2.9,0.3l-20.1-25.2c-0.6-0.8-1.3-1.7-2.1-2.7c0,1.3,0.1,2.4,0.1,3.5v16.2
		C97.1,257.1,97.1,258.7,97.1,260"/>
	<path class="st2" d="M129.4,227.3c2.4,0.1,5,0.1,7.9,0.1c3,0,5.6,0,7.9-0.1l0.1,1.3l-3.3,0.9c-0.4,0.1-0.6,0.4-0.7,0.8
		c0,0.6,0,1.3,0,2c0,0.7,0,1.5,0,2.3v14.1c0,4.6,0.7,7.9,2.1,9.6c1.4,1.8,3.7,2.7,6.8,2.7c3.1,0,5.4-0.9,6.9-2.8
		c1.5-1.9,2.3-4.9,2.3-9.1v-14.4c0-0.8,0-1.6,0-2.3c0-0.7,0-1.4-0.1-2c0-0.4-0.2-0.6-0.7-0.8l-3.2-0.9l-0.1-1.4
		c2.3,0.1,4.2,0.1,5.9,0.1c1.5,0,3.5,0,5.8-0.1l0.1,1.3l-3.5,1c-0.4,0.1-0.6,0.4-0.6,0.8c0,0.6,0,1.2,0,1.9c0,0.7,0,1.5,0,2.3v13
		c0,5.8-1.2,10-3.6,12.6c-2.4,2.5-5.9,3.8-10.5,3.8c-5.2,0-9.1-1.2-11.6-3.6c-2.5-2.4-3.7-6.3-3.7-11.6v-14.1c0-0.8,0-1.6,0-2.3
		c0-0.7,0-1.3,0-1.9c0-0.4-0.2-0.7-0.6-0.8l-3.4-1L129.4,227.3z"/>
	<path class="st2" d="M182.4,255.1c0,1,0,2,0,2.8c0,0.8,0,1.6,0,2.2c0,0.4,0.3,0.7,0.9,0.9l3.1,0.9l0.1,1.3c-2.4,0-5-0.1-7.9-0.1
		c-3,0-5.6,0-8,0.1l-0.1-1.3l3.4-0.9c0.4-0.1,0.7-0.4,0.7-0.8c0-0.7,0-1.4,0-2.3c0-0.8,0-1.8,0-2.8v-20.3c0-0.8,0-1.6,0-2.3
		c0-0.7,0-1.3,0-1.9c0-0.4-0.2-0.7-0.6-0.8l-3.4-1l-0.1-1.3c2.4,0.1,5,0.1,7.9,0.1c3,0,5.6,0,8-0.1l0.1,1.3l-3.4,0.9
		c-0.4,0.1-0.6,0.4-0.7,0.8c0,0.6,0,1.3,0,2c0,0.7,0,1.5,0,2.3V255.1z"/>
	<path class="st2" d="M272.3,227.9c4.3-0.6,8-1,11.1-1.6l0.3,0.2c-0.1,2.3-0.2,3.2-0.2,5.9v23.6c0,2,0,3.4,0.1,4.2
		c0,0.5,0.2,0.7,0.6,0.9l3.2,0.9l0.1,1.2c-2.5,0-5-0.1-7.5-0.1c-2.5,0-5,0-7.5,0.1l-0.1-1.2l3.2-0.9c0.4-0.1,0.6-0.4,0.6-0.8
		c0-0.7,0-1.8,0-3.3v-22.1c0-2.2,0-3-0.1-4.8l-3.7-1L272.3,227.9z"/>
	<path class="st2" d="M311,239.3c0,0,2.4,7.1,4.2,12.3c0.4,1.1,0.7,2.2,1.1,3.4c0.4-1.2,0.8-2.3,1.2-3.4c1.3-3.4,2.5-6.8,3.7-10.3
		l-2.7-0.8l-0.1-1.2c1.2,0,2.8,0.1,4.7,0.1c1.5,0,3,0,4.5-0.1l0.1,1.2l-2.8,0.7c-0.4,0.1-0.8,0.5-1,1c-1.3,3.1-2.7,6.8-4.5,11.1
		c-1.7,4.3-3,7.6-3.9,9.8l-3.3,0.4c-0.9-2.5-2.1-5.9-3.7-10.2c-0.4-1.4-0.8-2.6-1.2-3.7c-0.4,1.2-0.9,2.4-1.4,3.7
		c-1.6,4.3-2.9,7.6-3.8,9.9l-3.3,0.4c-0.9-2.5-2.2-5.9-3.9-10.2c-1.7-4.3-3.1-8-4.3-11c-0.3-0.6-0.6-1-1.1-1.1l-2.6-0.7l-0.1-1.2
		c2.2,0,4.6,0.1,7,0.1c2.3,0,4.6,0,6.7-0.1l0.2,1.2l-2.7,0.8c1,3.1,2.2,6.6,3.5,10.3c0.4,1.1,0.7,2.2,1.1,3.4
		c0.4-1.2,0.8-2.3,1.2-3.4c1.7-4.7,3.1-8.9,4.3-12.3H311z"/>
	<path class="st2" d="M247.8,244.4h-1.1l-0.1-3.2c3.6-1.7,7.1-2.5,10.5-2.5c3.1,0,5.4,0.7,6.9,2.1c1.5,1.4,2.3,3.3,2.3,5.9
		l-0.1,10.6c0,0.9,0.1,3.5,0.1,3.5l3.8,1.3l0.1,1.1l-10.2,0.4l-0.6-2.5c-2.2,1.8-4.4,2.7-6.9,2.7c-2.4,0-4.3-0.6-5.8-1.8
		c-1.5-1.2-2.3-2.8-2.3-5c0-2.7,1.2-4.6,3.7-5.9c2.5-1.2,6.2-1.9,11.1-1.9l0-1.9c0-1.8-0.4-3.2-1.3-4c-0.9-0.9-2.3-1.3-4.2-1.3
		c-1.5,0-3.4,0.3-5.4,0.9L247.8,244.4z M259.1,251.7c-2.7,0-4.6,0.3-5.7,1c-1.1,0.7-1.7,1.8-1.7,3.5c0,1.5,0.4,2.6,1.2,3.2
		c0.8,0.6,1.8,1,2.9,1c1.3,0,2.4-0.3,3.3-1L259.1,251.7z"/>
	<path class="st2" d="M332.4,244.4h-1.1l-0.1-3.2c3.6-1.7,7.1-2.5,10.5-2.5c3.1,0,5.4,0.7,6.9,2.1c1.5,1.4,2.3,3.3,2.3,5.9
		l-0.1,10.6c0,0.9,0.1,3.5,0.1,3.5l3.8,1.3l0.1,1.1l-10.2,0.4l-0.6-2.5c-2.2,1.8-4.4,2.7-6.9,2.7c-2.4,0-4.3-0.6-5.8-1.8
		c-1.5-1.2-2.3-2.8-2.3-5c0-2.7,1.2-4.6,3.7-5.9c2.5-1.2,6.2-1.9,11.1-1.9l0-1.9c0-1.8-0.4-3.2-1.3-4c-0.9-0.9-2.3-1.3-4.2-1.3
		c-1.5,0-3.4,0.3-5.4,0.9L332.4,244.4z M343.6,251.7c-2.7,0-4.6,0.3-5.7,1c-1.1,0.7-1.7,1.8-1.7,3.5c0,1.5,0.4,2.6,1.2,3.2
		c0.8,0.6,1.8,1,2.9,1c1.3,0,2.4-0.3,3.3-1L343.6,251.7z"/>
	<path class="st2" d="M241.8,247.3c-2.1,0-4.6,0.1-7.5,0.1c-2.8,0-5.4,0-7.9-0.1l0.1,1.3l3.5,1c0.3,0.1,0.5,0.3,0.6,0.7h0l1.1,11
		c-1.5,0.2-3.3,0.3-4,0.3c-3.9,0-6.9-1.4-9-4.3c-2.1-2.9-3.2-6.9-3.2-12.1c0-4.9,1.1-8.8,3.2-11.7c2.1-2.8,5.1-4.2,8.9-4.2
		c1.9,0,4,0.4,5.4,0.8c0.6,2,0.9,4.2,0.7,6c0.2,0,0.3,0,0.5,0c0.6,0.1,1.1,0.2,1.7,0.3l1.6-8.3l-0.2-0.2c-3-0.7-6.1-1.1-9.2-1.1
		c-6.5,0-11.6,1.7-15.4,5.1c-3.8,3.4-5.7,8.1-5.7,14.1c0,5.7,1.9,10.1,5.7,13.2c3.8,3.2,8.7,4.7,14.9,4.7c1.4,0,2.9-0.1,4.4-0.2
		l0.1,0.9l0.9,1l5.1-1.1l0.2-0.2l0-13.4v0c0-0.2,0-0.5,0-0.7c0-0.4,0.3-0.7,0.7-0.8l3-0.8L241.8,247.3z"/>
	<path class="st2" d="M381.1,239.3c-1.4,0-2.9,0.1-4.5,0.1c-1.8,0-3.4,0-4.7-0.1l0.1,1.2l2.7,0.8c-1.2,3-2.4,6.4-3.8,10
		c-0.5,1.3-1,2.6-1.6,4c-0.5-1.3-1-2.4-1.4-3.4c-1-2.3-1.8-4.2-2.4-5.7c-0.6-1.5-1.2-3.1-1.9-4.8l3.2-0.8l-0.1-1.2
		c-2.7,0-5.2,0.1-7.6,0.1c-1.8,0-3.9,0-6.2-0.1l0.1,1.2l2.4,0.7c0.6,0.2,0.9,0.5,1.1,1c2.5,5.8,5.3,12.6,8.3,20.1l0.9,2l-1.7,4.1
		c-1.5,3-2.7,4.5-5.9,4.5c-2.3,0-4.6-0.9-6.1-1.8l-1.9,4.4c1.3,0.7,3.4,2.1,7.4,2c5.4,0,8.3-6.1,9.8-9.5l0.6-1.4
		c0,0,5.5-14.4,7.7-19.7c0.7-1.7,1.4-3.3,2-4.7c0.2-0.5,0.6-0.9,1.2-1l2.4-0.7L381.1,239.3z"/>
	<path class="st3" d="M-38.8,193.2l0.3,3.1c0.4,0.2,0.6,0.6,0.6,1c0,0.3-0.1,0.5-0.3,0.7c0.6,0.3,1,0.7,1,1.1c0,0.2-0.1,0.4-0.2,0.5
		c-0.2,0.5-0.4,1.1-0.4,1.7c0,0.4,0.1,0.8,0.2,1.3c0.5,0.4,0.8,1,0.8,1.7c0,0.8-0.4,1.5-1.1,1.9c0.1,0.8,1.2,5.6,5.7,10.3
		c4.1,4.3,9.4,3.8,17,6.7c8.6,3.3,10.5,10.9,10.3,20.1l1.3,0.3v-3.1h-0.7l-0.5-1.3l0.5-1.3h0.7v-1.2h-0.6l-0.5-1l0.5-1h0.6v-1.6
		c0-0.1,0.1-0.2,0.2-0.2h2.4c0.1,0,0.2,0.1,0.2,0.2v0.8v0.7h0.6l0.5,1l-0.5,1h-0.6v1.2h0.7l0.5,1.3l-0.5,1.3h-0.7v3.7l2.9,2.8v0
		l-2.9,2.8v44.3l2.9,2.8l-2.9,2.8v12.8l2.9,2.8v0l-2.9,2.8v23.1h16.5v-7l-2.8-3l2.8-2.7l4.4-20l1.1-4.9l5.5,24.9v0l2.8,2.7l-2.8,3
		v9.1l16.7,3.4V193.2H-38.8z M15.8,328.4L15.8,328.4L15.8,328.4L15.8,328.4L15.8,328.4z"/>
	<path class="st4" d="M-122.6,359.4L-122.6,359.4v-12.5V359.4z M-122.6,193.2v153.5l16.7-3.4v-9.1l-2.8-3l2.8-2.7l4.5-20.2l1.1-4.8
		l5.5,24.9v0l2.8,2.7l-2.8,3v7l7.2,0l0,0h9.3l0-16.9l0-6.1l0,0l-3-2.9v0l3-2.9l0,0v-12.6l-0.1,0l-3-2.9l3-2.9v-44.1l0,0l-3-2.9v0
		l3-2.9l0,0v-3.6h-0.7l-0.5-1.3l0.5-1.3h0.7v-1.2H-79l-0.5-1l0.5-1h0.6v-1.6c0-0.1,0.1-0.2,0.2-0.2h2.4c0.1,0,0.2,0.1,0.2,0.2v0.8h0
		v0.7h0.6l0.5,1l-0.5,1h-0.6v1.2h0.7l0.5,1.3l-0.5,1.3h-0.7v3l1.3-0.3c0,0,0,0,0,0c-0.2-9.2,1.7-16.7,10.3-20.1
		c7.6-2.9,12.9-2.4,17-6.7c4.5-4.6,5.5-9.5,5.7-10.3c-0.7-0.4-1.1-1.1-1.1-1.9c0-0.7,0.3-1.3,0.8-1.7c0.1-0.4,0.2-0.8,0.2-1.2
		c0-0.6-0.1-1.2-0.4-1.7c-0.1-0.2-0.2-0.3-0.2-0.5c0-0.5,0.4-0.9,1-1.1c-0.2-0.2-0.3-0.4-0.3-0.7c0-0.4,0.3-0.8,0.6-1l0.3-3.1
		H-122.6z M-105.9,328.4L-105.9,328.4L-105.9,328.4L-105.9,328.4L-105.9,328.4z"/>
	<path class="st5" d="M-31.9,245.6c-2.7-3.4-5.9-6.1-7.7-6.9c-1.8,0.8-4.7,3.3-7.7,6.9c-2.5,3.1-3.5,6.1-3.5,8.8v36.4h22.5v-36.4
		C-28.3,251.4-29.4,248.8-31.9,245.6"/>
	<path class="st2" d="M-35.6,252.8c-0.8-1.4-2.1-2.6-2.8-3l0,32l-4.6,0l-1.7,3.3h10.4v-28.3C-34.3,256.9-34.3,255.3-35.6,252.8"/>
	<path class="st5" d="M-37.4,294.1c3,0.9,5.2,3.5,5.2,6.7c0,3.1-2.2,5.8-5.1,6.7h9.2v-13.3H-37.4z M-41.6,294.1h-9.2v13.3h9.2
		c-3-0.9-5.1-3.5-5.1-6.7C-46.8,297.7-44.6,295-41.6,294.1"/>
	<path class="st5" d="M-38.6,301.2l-1-5.8l-0.9,5.2l-5.2,0.9l5.9,1c0.1,0,0.1,0,0.2,0c0.5,0,1-0.4,1-1
		C-38.5,301.4-38.5,301.3-38.6,301.2"/>
	<path class="st5" d="M26.8,349.6v-15.5l2.8-3l-2.8-2.7v0l-5.5-24.9v29.7l-5.5-4.7v0v0l0,0l-2.8,2.7l2.8,3v7H-0.6V318l2.9-2.8v0
		l-2.9-2.8v-12.8l2.9-2.8l-2.9-2.8v-44.3l2.9-2.8v0l-2.9-2.8v-3.7h0.7l0.5-1.3l-0.5-1.3h-0.7v-1.2h0.6l0.5-1l-0.5-1h-0.6V234v-0.8
		c0-0.1-0.1-0.2-0.2-0.2h-2.4c-0.1,0-0.2,0.1-0.2,0.2v1.6h-0.6l-0.5,1l0.5,1h0.6v1.2h-0.7l-0.5,1.3l0.5,1.3h0.7v3.1l-1.4-0.3
		c0.2-9.3-1.7-16.8-10.3-20.1c-7.6-2.9-12.9-2.4-17-6.7c-4.5-4.6-5.5-9.5-5.7-10.3c0.7-0.4,1.1-1.1,1.1-1.9c0-0.7-0.3-1.3-0.8-1.7
		c-0.1-0.4-0.2-0.8-0.2-1.3c0-0.6,0.1-1.2,0.4-1.7c0.1-0.2,0.2-0.3,0.2-0.5c0-0.5-0.4-0.9-1-1.1c0.2-0.2,0.3-0.4,0.3-0.7
		c0-0.4-0.3-0.8-0.6-1l-0.3-3.1h-0.7v3c0.2,0.1,0.3,0.2,0.3,0.3c0,0.2-0.2,0.3-0.6,0.3s-0.6-0.1-0.6-0.3c0-0.1,0.1-0.2,0.3-0.3
		l0.3-3h-0.5l-0.3,3.1c-0.4,0.2-0.6,0.6-0.6,1c0,0.3,0.1,0.5,0.3,0.7c-0.6,0.3-1,0.7-1,1.1c0,0.2,0.1,0.4,0.2,0.5
		c0.2,0.5,0.4,1.1,0.4,1.7c0,0.4-0.1,0.9-0.2,1.2c-0.5,0.4-0.8,1-0.8,1.7c0,0.8,0.4,1.5,1.1,1.9c-0.1,0.8-1.2,5.6-5.7,10.3
		c-4.1,4.3-9.4,3.8-17,6.7c-8.6,3.3-10.5,10.8-10.3,20.1l1.7-0.3c-0.1-6-0.4-14.6,15.9-18.8c11.8-3.1,14.7-8.1,16.3-17.5
		c0.2,0,0.4,0.1,0.6,0.1c0.4,5.4,1.5,11.8,6,15.4c8.2,6.5,10.4,8.1,11.1,17.7l3,2.9l-2.8,2.7v44.2l2.8,2.7l-2.8,2.7v12.2l2.8,2.7
		l-2.8,2.7v35.9l-5.9-5v-32.4h-22.5v30.2l-22.6,13.4V317l18-4.2l-3-2.9l-23,5.4l3,2.9h0l0,23v8.2H-90l2.3-8.2h-7.2v-7l2.8-3
		l-2.8-2.7v0l-5.5-24.9v29.7l-5.5-4.7l0,0v0v0l-2.8,2.7l2.8,3v15.5l-16.7-2.7v12.5H43.6v-12.5L26.8,349.6z M-40.2,204.4
		c-0.7,0-1.2-0.4-1.2-0.9c0-0.3,0.2-0.5,0.4-0.7c1.1-0.7,0.8-3,0.2-3.7c-0.1-0.1-0.2-0.3-0.2-0.4c0-0.4,0.4-0.6,0.9-0.6
		s0.9,0.3,0.9,0.6c0,0.1,0,0.2-0.1,0.3c-0.6,1.2-0.6,2.5,0.2,4.2c0.1,0.1,0.1,0.2,0.1,0.4C-39,204-39.6,204.4-40.2,204.4 M-10,308.3
		l-6-1.2v-8.6l6,1.2V308.3z M-10,261.6l0,0.5v24.7l-6-1.2v-26.9c0,0,0.2-2.3,0.8-4.1c0.7-2.1,2.1-3.5,2.1-3.5s1.6,2,2.4,5.2
		C-9.9,258.7-10,261.6-10,261.6"/>
	<path class="st5" d="M-63.9,254.6c-0.7-2.1-2.1-3.5-2.1-3.5s-1.5,2-2.4,5.2c-0.7,2.6-0.6,5.5-0.6,5.5v25.2l6-1.2v-26.9
		C-63.1,258.7-63.3,256.4-63.9,254.6"/>
	<polygon class="st5" points="-63.1,307.1 -63.1,298.5 -69,299.7 -69,308.3 	"/>
	<path class="st5" d="M-78.4,249.9V294l5-1v-44l18-3.4l-3-2.9l-23,4.4L-78.4,249.9L-78.4,249.9z M-58.4,292.2l-23,4.6l3,2.9l23-4.6
		L-58.4,292.2z M-81.4,296.9L-81.4,296.9z"/>
	<path class="st5" d="M-75.6,233.4h-0.2v0h-1.4c-0.1,0-0.2,0.1-0.2,0.2v1.1h1.8V233.4z"/>
	<polygon class="st5" points="-77.4,236.7 -77.4,237.9 -75.6,237.9 -75.6,236.7 -75,236.7 -74.5,235.7 -75.6,235.7 -77.4,235.7 
		-79.4,235.7 -79,236.7 	"/>
	<polygon class="st5" points="-77.4,240.5 -77.4,242.2 -78.4,242.4 -78.4,244.1 -75.6,243.6 -75.6,241.9 -75.6,241.9 -75.6,240.5 
		-74.8,240.5 -74.3,239.2 -75.6,239.2 -77.4,239.2 -79.6,239.2 -79.1,240.5 	"/>
</g>
</svg>
