<svg xmlns="http://www.w3.org/2000/svg" viewBox="0 0 956.63 314.21"><defs><style>.cls-1{fill:#a39461;}</style></defs><g id="Layer_2" data-name="Layer 2"><g id="Artwork"><path class="cls-1" d="M241.29,0H193V23.71H144.78V0H96.52V23.71H48.26V0H0V144.77H48.26a72.39,72.39,0,0,1,144.77,0h48.24Z"/><rect class="cls-1" x="193.03" y="290.08" width="48.26" height="24.13"/><rect class="cls-1" y="290.08" width="48.26" height="24.13"/><rect class="cls-1" y="241.82" width="48.26" height="24.13"/><rect class="cls-1" x="193.04" y="241.82" width="48.26" height="24.13"/><rect class="cls-1" x="48.26" y="217.7" width="144.78" height="24.13"/><polygon class="cls-1" points="193.03 265.95 48.26 265.95 48.26 290.08 96.52 290.08 96.52 314.21 144.78 314.21 144.78 290.08 193.03 290.08 193.03 265.95"/><rect class="cls-1" x="193.04" y="169.44" width="48.26" height="48.26"/><rect class="cls-1" y="169.44" width="48.26" height="48.26"/><path d="M314.76,161.12a11.14,11.14,0,0,1-8.65-3.78,13.14,13.14,0,0,1-3.36-9,13,13,0,0,1,3.36-8.92,11,11,0,0,1,8.65-3.82,10.91,10.91,0,0,1,8.61,3.82,12.87,12.87,0,0,1,3.39,8.92,13,13,0,0,1-3.39,9A11,11,0,0,1,314.76,161.12Zm5.91-6.23a10.58,10.58,0,0,0,0-13,7.15,7.15,0,0,0-5.88-2.83,7.25,7.25,0,0,0-6,2.83,10.58,10.58,0,0,0,0,13,7.26,7.26,0,0,0,6,2.84A7.16,7.16,0,0,0,320.67,154.89Z"/><path d="M331.13,160.63V135.08h3.74v25.55Z"/><path d="M339.74,160.63V135.08h3.74v25.55Z"/><path d="M347.09,154.86h3.5c.42,2.13,2,3.46,4.58,3.46,2.42,0,3.92-1.19,3.92-2.9,0-1.3-1-2.14-2.94-2.45l-3.71-.63c-3.32-.56-5-2.14-5-4.73,0-3.25,2.91-5.46,7.14-5.46s7,2.17,7.35,5.67h-3.5c-.28-1.78-1.61-2.94-3.85-2.94s-3.71.88-3.71,2.42c0,1.15.63,1.64,2.56,2l3.78.63c3.6.59,5.32,2.24,5.32,5.21a5.12,5.12,0,0,1-2.14,4.31,8.35,8.35,0,0,1-5.25,1.64C350.69,161.05,347.75,158.74,347.09,154.86Z"/><path d="M382.09,148.77h-3.65a4.46,4.46,0,0,0-4.58-3.43,4.54,4.54,0,0,0-3.78,1.85,7.65,7.65,0,0,0,0,8.82,4.49,4.49,0,0,0,3.78,1.82,4.41,4.41,0,0,0,4.58-3.39h3.65c-.7,3.92-3.75,6.61-8.23,6.61a8.36,8.36,0,0,1-6.48-2.76,9.81,9.81,0,0,1-2.48-6.69,9.71,9.71,0,0,1,2.48-6.65,8.39,8.39,0,0,1,6.48-2.8C378.34,142.15,381.39,144.85,382.09,148.77Z"/><path d="M393.44,161.05a8.45,8.45,0,0,1-6.44-2.73,9.5,9.5,0,0,1-2.56-6.72,9.37,9.37,0,0,1,2.56-6.68,8.87,8.87,0,0,1,12.88,0,9.4,9.4,0,0,1,2.55,6.68,9.53,9.53,0,0,1-2.55,6.72A8.47,8.47,0,0,1,393.44,161.05Zm0-3.18a4.6,4.6,0,0,0,3.81-1.86,7.13,7.13,0,0,0,1.44-4.41,7,7,0,0,0-1.47-4.41,4.5,4.5,0,0,0-3.78-1.89,4.6,4.6,0,0,0-3.82,1.89,7.52,7.52,0,0,0,0,8.82A4.61,4.61,0,0,0,393.44,157.87Z"/><path d="M406,139.67v-4.13h3.89v4.13Zm.07,21V142.57h3.75v18.06Z"/><path d="M414.72,160.63V135.08h3.75v25.55Z"/><path d="M438,160.63v-21.1h-8v-3.4h19.92v3.4h-8.05v21.1Z"/><path d="M451.51,144.88a8.07,8.07,0,0,1,6.26-2.73,7.76,7.76,0,0,1,6.23,2.59,9.67,9.67,0,0,1,2.21,6.51v1.19H452.7c.17,3.33,2.13,5.67,5.25,5.67a4.4,4.4,0,0,0,4.48-2.83h3.5a7.71,7.71,0,0,1-2.87,4.2,9.17,9.17,0,0,1-11.62-1.12,9.88,9.88,0,0,1-2.38-6.76A9.52,9.52,0,0,1,451.51,144.88Zm11.16,4.8c-.31-2.84-2.13-4.76-4.93-4.76s-4.52,2-4.94,4.76Z"/><path d="M469.92,139.67v-4.13h3.88v4.13Zm.07,21V142.57h3.74v18.06Z"/><path d="M494.55,148.77h-3.64a4.46,4.46,0,0,0-4.58-3.43,4.54,4.54,0,0,0-3.78,1.85,7.65,7.65,0,0,0,0,8.82,4.49,4.49,0,0,0,3.78,1.82,4.41,4.41,0,0,0,4.58-3.39h3.64c-.7,3.92-3.74,6.61-8.22,6.61a8.36,8.36,0,0,1-6.48-2.76,9.81,9.81,0,0,1-2.48-6.69,9.71,9.71,0,0,1,2.48-6.65,8.39,8.39,0,0,1,6.48-2.8C490.81,142.15,493.85,144.85,494.55,148.77Z"/><path d="M498.1,160.63V142.57h3.6v2.91c.88-2.21,2.7-3.33,5.43-3.33,4.2,0,6.55,2.87,6.55,7.46v11h-3.75V150.1c0-2.91-1.26-4.66-3.78-4.66s-4.31,1.79-4.31,4.73v10.46Z"/><path d="M519.59,144.88a8.07,8.07,0,0,1,6.26-2.73,7.8,7.8,0,0,1,6.24,2.59,9.66,9.66,0,0,1,2.2,6.51v1.19H520.78c.17,3.33,2.13,5.67,5.25,5.67a4.4,4.4,0,0,0,4.48-2.83H534a7.61,7.61,0,0,1-2.87,4.2,9.17,9.17,0,0,1-11.62-1.12,9.88,9.88,0,0,1-2.38-6.76A9.52,9.52,0,0,1,519.59,144.88Zm11.17,4.8c-.32-2.84-2.14-4.76-4.94-4.76s-4.52,2-4.94,4.76Z"/><path d="M545.9,161.05a8.47,8.47,0,0,1-6.44-2.73,9.53,9.53,0,0,1-2.55-6.72,9.4,9.4,0,0,1,2.55-6.68,8.87,8.87,0,0,1,12.88,0,9.37,9.37,0,0,1,2.56,6.68,9.5,9.5,0,0,1-2.56,6.72A8.45,8.45,0,0,1,545.9,161.05Zm0-3.18a4.61,4.61,0,0,0,3.82-1.86,7.19,7.19,0,0,0,1.43-4.41,7,7,0,0,0-1.47-4.41,4.48,4.48,0,0,0-3.78-1.89,4.6,4.6,0,0,0-3.81,1.89,7.47,7.47,0,0,0,0,8.82A4.6,4.6,0,0,0,545.9,157.87Z"/><path d="M558.63,160.63V135.08h3.75v25.55Z"/><path d="M573.23,149.71l5.07-.35v-.66c0-2.35-1.26-3.68-3.67-3.68a3.61,3.61,0,0,0-3.89,2.91H567.1c.56-3.5,3.43-5.78,7.49-5.78,4.76,0,7.46,2.59,7.46,6.69v11.79h-3.64v-2.69c-.74,1.82-2.84,3.11-5.6,3.11-3.89,0-6.38-2.27-6.38-5.67S568.71,150,573.23,149.71Zm.42,8.68c2.8,0,4.65-1.89,4.65-5v-1.5l-4.09.28c-2.77.17-4.13,1.22-4.13,3.08S571.37,158.39,573.65,158.39Z"/><path d="M586.76,160.63V142.57h3.75v18.06Zm3.54-20.33h-3l1.85-5.11h4.63Z"/><path d="M603,161.05a8.45,8.45,0,0,1-6.44-2.73A9.5,9.5,0,0,1,594,151.6a9.37,9.37,0,0,1,2.56-6.68,8.87,8.87,0,0,1,12.88,0A9.37,9.37,0,0,1,612,151.6a9.5,9.5,0,0,1-2.56,6.72A8.45,8.45,0,0,1,603,161.05Zm0-3.18a4.61,4.61,0,0,0,3.82-1.86,7.19,7.19,0,0,0,1.43-4.41,7,7,0,0,0-1.47-4.41A4.48,4.48,0,0,0,603,145.3a4.63,4.63,0,0,0-3.82,1.89,7.52,7.52,0,0,0,0,8.82A4.63,4.63,0,0,0,603,157.87Z"/><path d="M631.67,148.77H628a4.47,4.47,0,0,0-4.59-3.43,4.54,4.54,0,0,0-3.78,1.85,7.65,7.65,0,0,0,0,8.82,4.49,4.49,0,0,0,3.78,1.82,4.42,4.42,0,0,0,4.59-3.39h3.64c-.7,3.92-3.75,6.61-8.23,6.61a8.36,8.36,0,0,1-6.48-2.76,9.81,9.81,0,0,1-2.48-6.69A9.71,9.71,0,0,1,617,145a8.39,8.39,0,0,1,6.48-2.8C627.92,142.15,631,144.85,631.67,148.77Z"/><path d="M635.21,160.63V135.08H639v10.36a5.32,5.32,0,0,1,5.28-3.29c4.17,0,6.55,2.87,6.55,7.39v11.09H647V150c0-2.8-1.29-4.59-3.78-4.59s-4.3,1.75-4.3,4.73v10.46Z"/><path d="M656.32,154.86v-9.21h-3.19v-3.08h3.19v-4.79h3.74v4.79h4.83v3.08h-4.83v9.21c0,1.85.91,2.8,2.7,2.8a8.63,8.63,0,0,0,2.17-.32v3.08a8.15,8.15,0,0,1-3.08.42C658.17,160.84,656.32,158.85,656.32,154.86Z"/><path d="M674.29,149.71l5.08-.35v-.66a3.31,3.31,0,0,0-3.68-3.68,3.61,3.61,0,0,0-3.88,2.91h-3.64c.56-3.5,3.43-5.78,7.49-5.78,4.76,0,7.46,2.59,7.46,6.69v11.79h-3.65v-2.69c-.73,1.82-2.83,3.11-5.6,3.11-3.88,0-6.37-2.27-6.37-5.67S669.78,150,674.29,149.71Zm.42,8.68c2.81,0,4.66-1.89,4.66-5v-1.5l-4.1.28c-2.76.17-4.13,1.22-4.13,3.08S672.44,158.39,674.71,158.39Z"/><path d="M695.78,160.63V142.57h3.61v2.91c.87-2.21,2.69-3.33,5.42-3.33,4.2,0,6.55,2.87,6.55,7.46v11h-3.75V150.1c0-2.91-1.26-4.66-3.78-4.66s-4.3,1.79-4.3,4.73v10.46Z"/><path d="M721.91,149.71l5.08-.35v-.66a3.31,3.31,0,0,0-3.68-3.68,3.61,3.61,0,0,0-3.88,2.91h-3.64c.56-3.5,3.43-5.78,7.49-5.78,4.76,0,7.46,2.59,7.46,6.69v11.79H727.1v-2.69c-.74,1.82-2.84,3.11-5.61,3.11-3.88,0-6.37-2.27-6.37-5.67S717.4,150,721.91,149.71Zm.42,8.68c2.81,0,4.66-1.89,4.66-5v-1.5l-4.1.28c-2.76.17-4.13,1.22-4.13,3.08S720.06,158.39,722.33,158.39Z"/><path d="M742.49,153.25h3.75c.66,2.94,2.83,4.79,6.33,4.79s5.53-1.78,5.53-4.41c0-2-1.29-3.25-3.84-3.74L749,148.8c-3.85-.8-5.78-2.9-5.78-6.23a6.05,6.05,0,0,1,2.49-5,10.4,10.4,0,0,1,6.51-2c5.22,0,8.51,2.73,9,7.32h-3.71a5.1,5.1,0,0,0-5.39-4.24c-3.12,0-5.18,1.37-5.18,3.64,0,1.79.87,2.66,3.15,3.12l5.46,1.08c4.2.81,6.3,3.08,6.3,6.76a7,7,0,0,1-2.63,5.63,10.2,10.2,0,0,1-6.68,2.17C747,161.12,743.3,158,742.49,153.25Z"/><path d="M766.09,139.67v-4.13H770v4.13Zm.07,21V142.57h3.75v18.06Z"/><path d="M782.53,161.05a8.47,8.47,0,0,1-6.44-2.73,9.53,9.53,0,0,1-2.55-6.72,9.4,9.4,0,0,1,2.55-6.68,8.87,8.87,0,0,1,12.88,0,9.37,9.37,0,0,1,2.56,6.68,9.5,9.5,0,0,1-2.56,6.72A8.45,8.45,0,0,1,782.53,161.05Zm0-3.18a4.61,4.61,0,0,0,3.82-1.86,7.19,7.19,0,0,0,1.43-4.41,7,7,0,0,0-1.47-4.41,4.48,4.48,0,0,0-3.78-1.89,4.6,4.6,0,0,0-3.81,1.89,7.47,7.47,0,0,0,0,8.82A4.6,4.6,0,0,0,782.53,157.87Z"/><path d="M795.14,160.63V142.57h3.6v2.91c.88-2.21,2.7-3.33,5.43-3.33,4.2,0,6.55,2.87,6.55,7.46v11H807V150.1c0-2.91-1.26-4.66-3.78-4.66s-4.3,1.79-4.3,4.73v10.46Z"/><path d="M821.27,149.71l5.08-.35v-.66a3.31,3.31,0,0,0-3.68-3.68,3.61,3.61,0,0,0-3.88,2.91h-3.64c.56-3.5,3.43-5.78,7.49-5.78,4.76,0,7.45,2.59,7.45,6.69v11.79h-3.64v-2.69c-.73,1.82-2.83,3.11-5.6,3.11-3.88,0-6.37-2.27-6.37-5.67S816.76,150,821.27,149.71Zm.42,8.68c2.8,0,4.66-1.89,4.66-5v-1.5l-4.1.28c-2.76.17-4.13,1.22-4.13,3.08S819.42,158.39,821.69,158.39Z"/><path d="M834.71,139.67v-4.13h3.89v4.13Zm.07,21V142.57h3.75v18.06Z"/><path d="M843.32,160.63V142.57h3.61v2.91c.88-2.21,2.69-3.33,5.42-3.33,4.21,0,6.55,2.87,6.55,7.46v11h-3.74V150.1c0-2.91-1.27-4.66-3.78-4.66s-4.31,1.79-4.31,4.73v10.46Z"/><path d="M863.53,160.63V142.57h3.61v2.91c.87-2.21,2.69-3.33,5.42-3.33,4.2,0,6.55,2.87,6.55,7.46v11h-3.75V150.1c0-2.91-1.26-4.66-3.78-4.66s-4.31,1.79-4.31,4.73v10.46Z"/><path d="M885,144.88a8.1,8.1,0,0,1,6.27-2.73,7.78,7.78,0,0,1,6.23,2.59,9.66,9.66,0,0,1,2.2,6.51v1.19H886.21c.18,3.33,2.14,5.67,5.25,5.67a4.4,4.4,0,0,0,4.48-2.83h3.5a7.61,7.61,0,0,1-2.87,4.2A9.17,9.17,0,0,1,885,158.36a9.88,9.88,0,0,1-2.38-6.76A9.52,9.52,0,0,1,885,144.88Zm11.17,4.8c-.32-2.84-2.14-4.76-4.94-4.76s-4.52,2-4.94,4.76Z"/><path d="M903.33,149.05v-4.52h4.2v4.52Zm0,11.58v-4.51h4.2v4.51Z"/><path d="M303.84,199.63v-24.5h3.84v21.11h12.68v3.39Z"/><path d="M330.08,188.71l5.07-.35v-.66c0-2.35-1.26-3.68-3.67-3.68a3.61,3.61,0,0,0-3.89,2.91H324c.56-3.5,3.43-5.78,7.49-5.78,4.76,0,7.46,2.59,7.46,6.69v11.79h-3.64v-2.69c-.74,1.82-2.84,3.11-5.6,3.11-3.89,0-6.37-2.27-6.37-5.67S325.56,189,330.08,188.71Zm.42,8.68c2.8,0,4.65-1.89,4.65-5v-1.5l-4.09.28c-2.77.17-4.13,1.22-4.13,3.08S328.22,197.39,330.5,197.39Zm2.66-18.09h-3.05l1.89-5.11h4.59Z"/><path d="M343.53,199.63V181.57h3.57v4.2c.66-2.94,2.45-4.41,5.39-4.41a5,5,0,0,1,1.43.14V185a7.53,7.53,0,0,0-1.15-.07c-3.36,0-5.5,2.34-5.5,6.4v8.33Z"/><path d="M371.49,199.63v-21.1h-8v-3.4h19.91v3.4h-8.05v21.1Z"/><path d="M386.36,199.63V181.57h3.75v18.06Zm3.54-20.33h-3l1.86-5.11h4.62Z"/><path d="M394.93,199.63V181.57h3.57v4.2c.66-2.94,2.45-4.41,5.39-4.41a5,5,0,0,1,1.43.14V185a7.53,7.53,0,0,0-1.15-.07c-3.36,0-5.5,2.34-5.5,6.4v8.33Z"/><path d="M409.28,183.88a8.07,8.07,0,0,1,6.26-2.73,7.76,7.76,0,0,1,6.23,2.59,9.67,9.67,0,0,1,2.21,6.51v1.19H410.47c.17,3.33,2.13,5.67,5.25,5.67a4.4,4.4,0,0,0,4.48-2.83h3.5a7.71,7.71,0,0,1-2.87,4.2,9.17,9.17,0,0,1-11.62-1.12,9.88,9.88,0,0,1-2.38-6.76A9.52,9.52,0,0,1,409.28,183.88Zm11.16,4.8c-.31-2.84-2.13-4.76-4.93-4.76s-4.52,2-4.94,4.76Z"/><path d="M427.89,195.33H432L428.84,204H426Z"/><path d="M442.8,199.63l9.73-24.5h4.1l9.77,24.5h-4l-2.2-5.91H449l-2.21,5.91Zm7.46-9.31h8.68l-4.34-11.48Z"/><path d="M469.59,199.63V181.57h3.6v2.91c.88-2.21,2.7-3.33,5.43-3.33,4.2,0,6.54,2.87,6.54,7.46v11h-3.74V189.1c0-2.91-1.26-4.66-3.78-4.66s-4.31,1.79-4.31,4.73v10.46Z"/><path d="M499,193.86v-9.21h-3.19v-3.08H499v-4.79h3.75v4.79h4.83v3.08h-4.83v9.21c0,1.85.91,2.8,2.69,2.8a8.51,8.51,0,0,0,2.17-.32v3.08a8.12,8.12,0,0,1-3.08.42C500.87,199.84,499,197.85,499,193.86Z"/><path d="M511.4,199.63v-24.5h3.85v24.5Z"/><path d="M526.63,188.71l5.07-.35v-.66c0-2.35-1.26-3.68-3.67-3.68a3.61,3.61,0,0,0-3.89,2.91H520.5c.56-3.5,3.43-5.78,7.49-5.78,4.76,0,7.46,2.59,7.46,6.69v11.79h-3.64v-2.69c-.74,1.82-2.84,3.11-5.6,3.11-3.89,0-6.37-2.27-6.37-5.67S522.11,189,526.63,188.71Zm.42,8.68c2.8,0,4.65-1.89,4.65-5v-1.5l-4.09.28c-2.77.17-4.13,1.22-4.13,3.08S524.77,197.39,527.05,197.39Z"/><path d="M540.08,199.63V181.57h3.57v4.2c.66-2.94,2.45-4.41,5.39-4.41a5,5,0,0,1,1.43.14V185a7.53,7.53,0,0,0-1.15-.07c-3.36,0-5.5,2.34-5.5,6.4v8.33Z"/><path d="M555.5,193.86v-9.21h-3.19v-3.08h3.19v-4.79h3.74v4.79h4.83v3.08h-4.83v9.21c0,1.85.91,2.8,2.7,2.8a8.63,8.63,0,0,0,2.17-.32v3.08a8.15,8.15,0,0,1-3.08.42C557.35,199.84,555.5,197.85,555.5,193.86Z"/><path d="M567.15,199.63V174.08h3.74v10.36a5.33,5.33,0,0,1,5.29-3.29c4.16,0,6.54,2.87,6.54,7.39v11.09H579V189c0-2.8-1.3-4.59-3.78-4.59-2.63,0-4.31,1.75-4.31,4.73v10.46Z"/><path d="M593.28,188.71l5.07-.35v-.66c0-2.35-1.26-3.68-3.67-3.68a3.61,3.61,0,0,0-3.89,2.91h-3.64c.56-3.5,3.43-5.78,7.49-5.78,4.76,0,7.46,2.59,7.46,6.69v11.79h-3.64v-2.69c-.74,1.82-2.84,3.11-5.6,3.11-3.89,0-6.37-2.27-6.37-5.67S588.76,189,593.28,188.71Zm.42,8.68c2.8,0,4.65-1.89,4.65-5v-1.5l-4.09.28c-2.77.17-4.13,1.22-4.13,3.08S591.42,197.39,593.7,197.39Z"/><path d="M606.73,199.63V181.57h3.57v4.2c.66-2.94,2.45-4.41,5.39-4.41a5,5,0,0,1,1.43.14V185a7.53,7.53,0,0,0-1.15-.07c-3.36,0-5.5,2.34-5.5,6.4v8.33Z"/><path d="M628.36,199.63v-24.5h3.85v21.11h12.67v3.39Z"/><path d="M654.6,188.71l5.08-.35v-.66A3.31,3.31,0,0,0,656,184a3.61,3.61,0,0,0-3.89,2.91h-3.64c.56-3.5,3.43-5.78,7.5-5.78,4.76,0,7.45,2.59,7.45,6.69v11.79h-3.64v-2.69c-.73,1.82-2.83,3.11-5.6,3.11-3.89,0-6.37-2.27-6.37-5.67S650.08,189,654.6,188.71Zm.42,8.68c2.8,0,4.66-1.89,4.66-5v-1.5l-4.1.28c-2.77.17-4.13,1.22-4.13,3.08S652.74,197.39,655,197.39Zm2.66-18.09h-3l1.88-5.11h4.59Z"/><path d="M668,178.67v-4.13h3.88v4.13Zm.07,21V181.57h3.74v18.06Z"/><path d="M676.65,199.63V181.57h3.57v4.2c.67-2.94,2.45-4.41,5.39-4.41a5.1,5.1,0,0,1,1.44.14V185a7.68,7.68,0,0,0-1.16-.07c-3.36,0-5.49,2.34-5.49,6.4v8.33Z"/><path d="M310.17,250.63v-21.1h-8v-3.4h19.92v3.4H314v21.1Z"/><path d="M323.65,234.88a8.07,8.07,0,0,1,6.26-2.73,7.76,7.76,0,0,1,6.23,2.59,9.67,9.67,0,0,1,2.21,6.51v1.19H324.84c.17,3.33,2.13,5.67,5.25,5.67a4.4,4.4,0,0,0,4.48-2.83h3.5a7.71,7.71,0,0,1-2.87,4.2,9.17,9.17,0,0,1-11.62-1.12,9.88,9.88,0,0,1-2.38-6.76A9.52,9.52,0,0,1,323.65,234.88Zm11.16,4.8c-.31-2.84-2.13-4.76-4.93-4.76s-4.52,2-4.94,4.76Z"/><path d="M358.15,238.77h-3.64a4.46,4.46,0,0,0-4.58-3.43,4.54,4.54,0,0,0-3.78,1.85,7.65,7.65,0,0,0,0,8.82,4.49,4.49,0,0,0,3.78,1.82,4.41,4.41,0,0,0,4.58-3.39h3.64c-.7,3.92-3.74,6.61-8.22,6.61a8.36,8.36,0,0,1-6.48-2.76A9.81,9.81,0,0,1,341,241.6a9.71,9.71,0,0,1,2.48-6.65,8.39,8.39,0,0,1,6.48-2.8C354.41,232.15,357.45,234.85,358.15,238.77Z"/><path d="M361.7,250.63V225.08h3.74v10.36a5.34,5.34,0,0,1,5.29-3.29c4.17,0,6.55,2.87,6.55,7.39v11.09h-3.75V240c0-2.8-1.29-4.59-3.78-4.59s-4.31,1.75-4.31,4.73v10.46Z"/><path d="M381.91,250.63V232.57h3.6v2.91c.88-2.21,2.7-3.33,5.43-3.33,4.2,0,6.54,2.87,6.54,7.46v11h-3.74V240.1c0-2.91-1.26-4.66-3.78-4.66s-4.31,1.79-4.31,4.73v10.46Z"/><path d="M409.94,251.05a8.47,8.47,0,0,1-6.44-2.73A9.53,9.53,0,0,1,401,241.6a9.4,9.4,0,0,1,2.55-6.68,8.88,8.88,0,0,1,12.89,0,9.4,9.4,0,0,1,2.55,6.68,9.53,9.53,0,0,1-2.55,6.72A8.49,8.49,0,0,1,409.94,251.05Zm0-3.18a4.61,4.61,0,0,0,3.82-1.86,7.19,7.19,0,0,0,1.43-4.41,7,7,0,0,0-1.47-4.41,4.48,4.48,0,0,0-3.78-1.89,4.6,4.6,0,0,0-3.81,1.89,7.47,7.47,0,0,0,0,8.82A4.6,4.6,0,0,0,409.94,247.87Z"/><path d="M422.67,250.63V225.08h3.75v25.55Z"/><path d="M439.11,251.05a8.47,8.47,0,0,1-6.44-2.73,9.53,9.53,0,0,1-2.55-6.72,9.4,9.4,0,0,1,2.55-6.68,8.87,8.87,0,0,1,12.88,0,9.37,9.37,0,0,1,2.56,6.68,9.5,9.5,0,0,1-2.56,6.72A8.45,8.45,0,0,1,439.11,251.05Zm0-3.18a4.61,4.61,0,0,0,3.82-1.86,7.19,7.19,0,0,0,1.43-4.41,7,7,0,0,0-1.47-4.41,4.48,4.48,0,0,0-3.78-1.89,4.6,4.6,0,0,0-3.81,1.89,7.47,7.47,0,0,0,0,8.82A4.6,4.6,0,0,0,439.11,247.87Z"/><path d="M452.87,234.67a7.46,7.46,0,0,1,5.81-2.52,6,6,0,0,1,5.74,3.43v-3h3.67v17.19c0,4.86-3.29,7.73-8.47,7.73-4.48,0-7.77-2.34-8.61-6.09h3.85a4.62,4.62,0,0,0,4.73,3.19c3.36,0,4.76-1.82,4.76-5.46v-2.77a6,6,0,0,1-5.67,3.54,7.46,7.46,0,0,1-5.81-2.52,9.21,9.21,0,0,1-2.28-6.37A9.12,9.12,0,0,1,452.87,234.67ZM464.35,241a6.29,6.29,0,0,0-1.4-4.24,4.5,4.5,0,0,0-3.54-1.64c-3.08,0-5.11,2.48-5.11,5.88s2,5.88,5.11,5.88S464.35,244.51,464.35,241Z"/><path d="M472.85,229.67v-4.13h3.89v4.13Zm.07,21V232.57h3.75v18.06Z"/><path d="M497.49,238.77h-3.64a4.47,4.47,0,0,0-4.59-3.43,4.57,4.57,0,0,0-3.78,1.85,7.65,7.65,0,0,0,0,8.82,4.52,4.52,0,0,0,3.78,1.82,4.42,4.42,0,0,0,4.59-3.39h3.64c-.7,3.92-3.75,6.61-8.23,6.61a8.35,8.35,0,0,1-6.47-2.76,9.77,9.77,0,0,1-2.49-6.69,9.67,9.67,0,0,1,2.49-6.65,8.39,8.39,0,0,1,6.47-2.8C493.74,232.15,496.79,234.85,497.49,238.77Z"/><path d="M507.06,239.71l5.08-.35v-.66a3.31,3.31,0,0,0-3.68-3.68,3.61,3.61,0,0,0-3.88,2.91h-3.64c.56-3.5,3.43-5.78,7.49-5.78,4.76,0,7.45,2.59,7.45,6.69v11.79h-3.64v-2.69c-.73,1.82-2.83,3.11-5.6,3.11-3.88,0-6.37-2.27-6.37-5.67S502.55,240,507.06,239.71Zm.42,8.68c2.8,0,4.66-1.89,4.66-5v-1.5l-4.1.28c-2.76.17-4.13,1.22-4.13,3.08S505.21,248.39,507.48,248.39Z"/><path d="M520.6,250.63V225.08h3.75v25.55Z"/><path d="M540.27,248.32a10.17,10.17,0,0,1-2.76-7.52V226.13h3.85v14.63c0,4.45,2.41,7,6.3,7s6.26-2.52,6.26-7V226.13h3.85V240.8a10.17,10.17,0,0,1-2.76,7.52,11.1,11.1,0,0,1-14.74,0Z"/><path d="M562.86,250.63V232.57h3.6v2.91c.88-2.21,2.7-3.33,5.43-3.33,4.2,0,6.54,2.87,6.54,7.46v11h-3.74V240.1c0-2.91-1.26-4.66-3.78-4.66s-4.31,1.79-4.31,4.73v10.46Z"/><path d="M583,229.67v-4.13h3.88v4.13Zm.07,21V232.57h3.74v18.06Z"/><path d="M596.26,250.63l-6.72-18.06h3.71l5,14.07,5-14.07h3.75l-6.76,18.06Z"/><path d="M610.24,234.88a8.07,8.07,0,0,1,6.26-2.73,7.76,7.76,0,0,1,6.23,2.59,9.67,9.67,0,0,1,2.21,6.51v1.19H611.43c.17,3.33,2.13,5.67,5.25,5.67a4.4,4.4,0,0,0,4.48-2.83h3.5a7.71,7.71,0,0,1-2.87,4.2,9.17,9.17,0,0,1-11.62-1.12,9.88,9.88,0,0,1-2.38-6.76A9.52,9.52,0,0,1,610.24,234.88Zm11.16,4.8c-.31-2.84-2.13-4.76-4.93-4.76s-4.52,2-4.94,4.76Z"/><path d="M628.66,250.63V232.57h3.57v4.2c.66-2.94,2.45-4.41,5.39-4.41a5,5,0,0,1,1.43.14V236a7.53,7.53,0,0,0-1.15-.07c-3.36,0-5.5,2.34-5.5,6.4v8.33Z"/><path d="M640.94,244.86h3.5c.42,2.13,2,3.46,4.59,3.46,2.41,0,3.92-1.19,3.92-2.9,0-1.3-1-2.14-2.94-2.45l-3.71-.63c-3.33-.56-5-2.14-5-4.73,0-3.25,2.9-5.46,7.14-5.46s7,2.17,7.35,5.67h-3.5c-.28-1.78-1.61-2.94-3.85-2.94s-3.71.88-3.71,2.42c0,1.15.63,1.64,2.55,2l3.78.63c3.61.59,5.32,2.24,5.32,5.21a5.14,5.14,0,0,1-2.13,4.31,8.35,8.35,0,0,1-5.25,1.64C644.55,251.05,641.61,248.74,640.94,244.86Z"/><path d="M660,229.67v-4.13h3.89v4.13Zm.08,21V232.57h3.74v18.06Z"/><path d="M669.81,244.86v-9.21h-3.18v-3.08h3.18v-4.79h3.75v4.79h4.83v3.08h-4.83v9.21c0,1.85.91,2.8,2.69,2.8a8.51,8.51,0,0,0,2.17-.32v3.08a8.12,8.12,0,0,1-3.08.42C671.67,250.84,669.81,248.85,669.81,244.86Z"/><path d="M681.19,257.14V254a6.91,6.91,0,0,0,1.92.28c2.07,0,2.94-1.08,3.78-3.36l.14-.42-6.72-17.92h3.78L689,246.26l4.65-13.69h3.78l-6.54,18.06-.32.88a12.3,12.3,0,0,1-2.62,4.55,5.87,5.87,0,0,1-4.24,1.43A7.58,7.58,0,0,1,681.19,257.14Z"/><path d="M715.8,251.05a8.47,8.47,0,0,1-6.44-2.73,9.53,9.53,0,0,1-2.55-6.72,9.4,9.4,0,0,1,2.55-6.68,8.87,8.87,0,0,1,12.88,0,9.37,9.37,0,0,1,2.56,6.68,9.5,9.5,0,0,1-2.56,6.72A8.45,8.45,0,0,1,715.8,251.05Zm0-3.18a4.61,4.61,0,0,0,3.82-1.86,7.2,7.2,0,0,0,1.44-4.41,7,7,0,0,0-1.48-4.41,4.48,4.48,0,0,0-3.78-1.89,4.6,4.6,0,0,0-3.81,1.89,7.47,7.47,0,0,0,0,8.82A4.6,4.6,0,0,0,715.8,247.87Z"/><path d="M729.17,250.63v-15h-2.91v-3.08h2.91v-1.43c0-4.31,2.06-6.48,6.19-6.48a8.7,8.7,0,0,1,2.28.21v2.94a5.88,5.88,0,0,0-1.58-.14c-2.09,0-3.15,1.12-3.15,3.33v1.57h4.45v3.08h-4.45v15Z"/><path d="M749.57,244.86v-9.21h-3.18v-3.08h3.18v-4.79h3.75v4.79h4.83v3.08h-4.83v9.21c0,1.85.91,2.8,2.69,2.8a8.51,8.51,0,0,0,2.17-.32v3.08a8.08,8.08,0,0,1-3.08.42C751.43,250.84,749.57,248.85,749.57,244.86Z"/><path d="M761.22,250.63V225.08H765v10.36a5.32,5.32,0,0,1,5.28-3.29c4.17,0,6.55,2.87,6.55,7.39v11.09h-3.75V240c0-2.8-1.29-4.59-3.78-4.59s-4.3,1.75-4.3,4.73v10.46Z"/><path d="M782.71,234.88a8.11,8.11,0,0,1,6.27-2.73,7.78,7.78,0,0,1,6.23,2.59,9.66,9.66,0,0,1,2.2,6.51v1.19H783.9c.18,3.33,2.14,5.67,5.25,5.67a4.4,4.4,0,0,0,4.48-2.83h3.5a7.61,7.61,0,0,1-2.87,4.2,9.17,9.17,0,0,1-11.62-1.12,9.92,9.92,0,0,1-2.38-6.76A9.56,9.56,0,0,1,782.71,234.88Zm11.17,4.8c-.32-2.84-2.14-4.76-4.94-4.76s-4.51,2-4.93,4.76Z"/><path d="M808.19,243.25h3.75c.66,2.94,2.83,4.79,6.33,4.79s5.53-1.78,5.53-4.41c0-2-1.29-3.25-3.85-3.74l-5.28-1.09c-3.85-.8-5.78-2.9-5.78-6.23a6.05,6.05,0,0,1,2.49-5,10.4,10.4,0,0,1,6.51-2c5.21,0,8.5,2.73,9,7.32h-3.71a5.11,5.11,0,0,0-5.39-4.24c-3.12,0-5.18,1.37-5.18,3.64,0,1.79.87,2.66,3.15,3.12l5.46,1.08c4.2.81,6.3,3.08,6.3,6.76a7.05,7.05,0,0,1-2.63,5.63,10.2,10.2,0,0,1-6.68,2.17C812.67,251.12,809,248,808.19,243.25Z"/><path d="M831.8,250.63V225.08h3.75v10.36a5.32,5.32,0,0,1,5.28-3.29c4.17,0,6.55,2.87,6.55,7.39v11.09h-3.75V240c0-2.8-1.29-4.59-3.78-4.59s-4.3,1.75-4.3,4.73v10.46Z"/><path d="M857.93,239.71l5.08-.35v-.66a3.31,3.31,0,0,0-3.68-3.68,3.61,3.61,0,0,0-3.88,2.91h-3.64c.56-3.5,3.43-5.78,7.49-5.78,4.76,0,7.45,2.59,7.45,6.69v11.79h-3.64v-2.69c-.73,1.82-2.83,3.11-5.6,3.11-3.88,0-6.37-2.27-6.37-5.67S853.42,240,857.93,239.71Zm.42,8.68c2.8,0,4.66-1.89,4.66-5v-1.5l-4.1.28c-2.76.17-4.13,1.22-4.13,3.08S856.08,248.39,858.35,248.39Z"/><path d="M871.38,250.63V232.57H875v2.91c.87-2.21,2.69-3.33,5.42-3.33,4.2,0,6.55,2.87,6.55,7.46v11h-3.75V240.1c0-2.91-1.26-4.66-3.78-4.66s-4.3,1.79-4.3,4.73v10.46Z"/><path d="M891.59,250.63V232.57h3.6v2.91c.88-2.21,2.7-3.33,5.43-3.33,4.2,0,6.54,2.87,6.54,7.46v11h-3.74V240.1c0-2.91-1.26-4.66-3.78-4.66s-4.31,1.79-4.31,4.73v10.46Z"/><path d="M919.62,251.05a8.47,8.47,0,0,1-6.44-2.73,9.53,9.53,0,0,1-2.55-6.72,9.4,9.4,0,0,1,2.55-6.68,8.87,8.87,0,0,1,12.88,0,9.37,9.37,0,0,1,2.56,6.68,9.5,9.5,0,0,1-2.56,6.72A8.45,8.45,0,0,1,919.62,251.05Zm0-3.18a4.61,4.61,0,0,0,3.82-1.86,7.13,7.13,0,0,0,1.44-4.41,6.93,6.93,0,0,0-1.48-4.41,4.48,4.48,0,0,0-3.78-1.89,4.6,4.6,0,0,0-3.81,1.89,7.47,7.47,0,0,0,0,8.82A4.6,4.6,0,0,0,919.62,247.87Z"/><path d="M932.23,250.63V232.57h3.61v2.91c.87-2.21,2.69-3.33,5.42-3.33,4.2,0,6.55,2.87,6.55,7.46v11h-3.75V240.1c0-2.91-1.26-4.66-3.78-4.66s-4.31,1.79-4.31,4.73v10.46Z"/><path d="M952.43,239.05v-4.52h4.2v4.52Zm0,11.58v-4.51h4.2v4.51Z"/><path d="M303.84,289.63v-24.5h5.07l7.74,20.06,7.7-20.06h5.07v24.5h-3.53V269.68l-7.74,19.95h-3l-7.77-19.95v19.95Z"/><path d="M334.73,268.67v-4.13h3.88v4.13Zm.07,21V271.57h3.74v18.06Z"/><path d="M360.16,289.63h-3.64v-3.18a6.39,6.39,0,0,1-6,3.6,7.5,7.5,0,0,1-5.92-2.73,10.82,10.82,0,0,1,0-13.44,7.5,7.5,0,0,1,5.92-2.73,6.22,6.22,0,0,1,5.91,3.61V264.08h3.75Zm-12.74-13.44a7,7,0,0,0-1.4,4.41,7.08,7.08,0,0,0,1.4,4.45,4.48,4.48,0,0,0,3.71,1.82,4.62,4.62,0,0,0,3.78-1.82,7.34,7.34,0,0,0,0-8.89,4.6,4.6,0,0,0-3.78-1.82A4.51,4.51,0,0,0,347.42,276.19Z"/><path d="M365,289.63V264.08h3.75v25.55Z"/><path d="M379.58,278.71l5.07-.35v-.66c0-2.35-1.26-3.68-3.67-3.68a3.61,3.61,0,0,0-3.89,2.91h-3.64c.56-3.5,3.43-5.78,7.49-5.78,4.76,0,7.46,2.59,7.46,6.69v11.79h-3.64v-2.69c-.74,1.82-2.84,3.11-5.6,3.11-3.89,0-6.37-2.27-6.37-5.67S375.06,279,379.58,278.71Zm.42,8.68c2.8,0,4.65-1.89,4.65-5v-1.5l-4.09.28c-2.77.17-4.13,1.22-4.13,3.08S377.72,287.39,380,287.39Z"/><path d="M393,289.63V271.57h3.6v2.91c.88-2.21,2.7-3.33,5.43-3.33,4.2,0,6.54,2.87,6.54,7.46v11h-3.74V279.1c0-2.91-1.26-4.66-3.78-4.66s-4.31,1.79-4.31,4.73v10.46Z"/><path d="M430,289.63h-3.64v-3.18a6.39,6.39,0,0,1-6,3.6,7.5,7.5,0,0,1-5.92-2.73,10.82,10.82,0,0,1,0-13.44,7.5,7.5,0,0,1,5.92-2.73,6.22,6.22,0,0,1,5.91,3.61V264.08H430Zm-12.74-13.44a7,7,0,0,0-1.4,4.41,7.08,7.08,0,0,0,1.4,4.45,4.48,4.48,0,0,0,3.71,1.82,4.62,4.62,0,0,0,3.78-1.82,7.34,7.34,0,0,0,0-8.89,4.6,4.6,0,0,0-3.78-1.82A4.51,4.51,0,0,0,417.25,276.19Z"/><path d="M433.56,283.86h3.5c.42,2.13,2,3.46,4.59,3.46,2.42,0,3.92-1.19,3.92-2.9,0-1.3-1-2.14-2.94-2.45l-3.71-.63c-3.33-.56-5-2.14-5-4.73,0-3.25,2.9-5.46,7.14-5.46s7,2.17,7.35,5.67h-3.5c-.28-1.78-1.61-2.94-3.85-2.94s-3.71.88-3.71,2.42c0,1.15.63,1.64,2.55,2l3.79.63c3.6.59,5.32,2.24,5.32,5.21a5.12,5.12,0,0,1-2.14,4.31,8.35,8.35,0,0,1-5.25,1.64C437.17,290.05,434.23,287.74,433.56,283.86Z"/><path d="M460.72,289.63v-24.5h5.08l7.74,20.06,7.7-20.06h5.07v24.5h-3.53V269.68L475,289.63h-3l-7.77-19.95v19.95Z"/><path d="M491.62,268.67v-4.13h3.88v4.13Zm.06,21V271.57h3.75v18.06Z"/><path d="M517.05,289.63h-3.64v-3.18a6.39,6.39,0,0,1-6,3.6,7.5,7.5,0,0,1-5.92-2.73,10.82,10.82,0,0,1,0-13.44,7.5,7.5,0,0,1,5.92-2.73,6.22,6.22,0,0,1,5.91,3.61V264.08h3.75Zm-12.74-13.44a7,7,0,0,0-1.4,4.41,7.08,7.08,0,0,0,1.4,4.45,4.48,4.48,0,0,0,3.71,1.82,4.62,4.62,0,0,0,3.78-1.82,7.34,7.34,0,0,0,0-8.89,4.6,4.6,0,0,0-3.78-1.82A4.51,4.51,0,0,0,504.31,276.19Z"/><path d="M519.85,271.57h3.67l3.19,13.3,4.41-13.3h3.57l4.38,13.3,3.22-13.3H546l-5.14,18.06h-3.33l-4.58-14.21-4.59,14.21H525Z"/><path d="M549.83,273.88a8.07,8.07,0,0,1,6.26-2.73,7.76,7.76,0,0,1,6.23,2.59,9.67,9.67,0,0,1,2.21,6.51v1.19H551c.17,3.33,2.13,5.67,5.25,5.67a4.4,4.4,0,0,0,4.48-2.83h3.5a7.71,7.71,0,0,1-2.87,4.2,9.17,9.17,0,0,1-11.62-1.12,9.88,9.88,0,0,1-2.38-6.76A9.52,9.52,0,0,1,549.83,273.88Zm11.16,4.8c-.31-2.84-2.13-4.76-4.93-4.76s-4.52,2-4.94,4.76Z"/><path d="M566.93,283.86h3.5c.42,2.13,2,3.46,4.59,3.46,2.42,0,3.92-1.19,3.92-2.9,0-1.3-1-2.14-2.94-2.45l-3.71-.63c-3.33-.56-5-2.14-5-4.73,0-3.25,2.9-5.46,7.14-5.46s7,2.17,7.35,5.67h-3.5c-.28-1.78-1.61-2.94-3.85-2.94s-3.71.88-3.71,2.42c0,1.15.63,1.64,2.56,2l3.78.63c3.6.59,5.32,2.24,5.32,5.21a5.12,5.12,0,0,1-2.14,4.31,8.35,8.35,0,0,1-5.25,1.64C570.54,290.05,567.6,287.74,566.93,283.86Z"/><path d="M587.14,283.86v-9.21H584v-3.08h3.19v-4.79h3.75v4.79h4.83v3.08h-4.83v9.21c0,1.85.91,2.8,2.69,2.8a8.51,8.51,0,0,0,2.17-.32v3.08a8.12,8.12,0,0,1-3.08.42C589,289.84,587.14,287.85,587.14,283.86Z"/><path d="M325.21,101.16V41.07H301.87V24.83h65.44V41.07H344v60.09Z"/><path d="M374.57,24.83h18.76V69.65c0,10.58,5.24,16.68,14.72,16.68s14.73-6.1,14.73-16.68V24.83h18.75V69.76c0,10-3,18-9,24s-14.18,8.94-24.43,8.94-18.43-2.94-24.43-8.94-9.05-14-9.05-24Z"/><path d="M458.92,95.71a26.72,26.72,0,0,1-9.92-19h18.21c1.42,7,6.43,11.23,14.72,11.23,7.74,0,12.54-3.49,12.54-8.84q0-6-8.18-7.52l-15.92-3.16c-13.09-2.62-19.74-9.05-19.74-21.38a20.86,20.86,0,0,1,8.29-17c5.56-4.47,12.76-6.76,21.48-6.76,17.89,0,29.34,9.27,30.1,24.54h-18c-1-6-5.24-9.82-12.22-9.82s-11.45,2.73-11.45,7.64c0,3.48,2.08,5.23,6.77,6.1L493,55c13.19,2.51,19.73,9.71,19.73,21.71A23.5,23.5,0,0,1,504,95.49q-8.67,7.2-22.25,7.2C472.44,102.69,464.81,100.4,458.92,95.71Z"/></g></g></svg>