<svg xmlns="http://www.w3.org/2000/svg" viewBox="0 0 780.15 314.21"><defs><style>.cls-1{fill:#a39461;}</style></defs><g id="Layer_2" data-name="Layer 2"><g id="Artwork"><path class="cls-1" d="M241.29,0H193V23.71H144.78V0H96.52V23.71H48.26V0H0V144.77H48.26a72.39,72.39,0,0,1,144.77,0h48.24Z"/><rect class="cls-1" x="193.03" y="290.08" width="48.26" height="24.13"/><rect class="cls-1" y="290.08" width="48.26" height="24.13"/><rect class="cls-1" y="241.82" width="48.26" height="24.13"/><rect class="cls-1" x="193.04" y="241.82" width="48.26" height="24.13"/><rect class="cls-1" x="48.26" y="217.7" width="144.78" height="24.13"/><polygon class="cls-1" points="193.03 265.95 48.26 265.95 48.26 290.08 96.52 290.08 96.52 314.21 144.78 314.21 144.78 290.08 193.03 290.08 193.03 265.95"/><rect class="cls-1" x="193.04" y="169.44" width="48.26" height="48.26"/><rect class="cls-1" y="169.44" width="48.26" height="48.26"/><path d="M366.49,241V108.43H315V72.58H459.38v35.85h-51.5V241Z"/><path d="M475.4,72.58h41.39v98.9c0,23.34,11.55,36.82,32.49,36.82s32.49-13.48,32.49-36.82V72.58h41.39v99.14c0,22.14-6.74,39.71-20,52.94s-31.28,19.74-53.9,19.74-40.67-6.5-53.9-19.74-20-30.8-20-52.94Z"/><path d="M661.51,229c-12.75-10.35-20.21-24.31-21.89-41.88H679.8c3.13,15.4,14.2,24.79,32.49,24.79,17.09,0,27.68-7.7,27.68-19.49q0-13.36-18.05-16.61l-35.14-7c-28.87-5.77-43.55-20-43.55-47.16,0-15.16,6-27.68,18.28-37.54s28.16-14.92,47.41-14.92c39.47,0,64.74,20.45,66.42,54.14H735.63c-2.16-13.23-11.55-21.66-27-21.66-15.64,0-25.27,6-25.27,16.85,0,7.7,4.58,11.55,14.92,13.48l38.27,7.22c29.11,5.53,43.55,21.41,43.55,47.88,0,16.85-6.49,30.57-19.25,41.39q-19.12,15.88-49.09,15.89C691.35,244.4,674.51,239.34,661.51,229Z"/></g></g></svg>